<?xml version="1.0" encoding="UTF-8"?>
<!DOCTYPE svg PUBLIC "-//W3C//DTD SVG 1.1//EN" "http://www.w3.org/Graphics/SVG/1.1/DTD/svg11.dtd">
<!-- Creator: CorelDRAW -->
<svg xmlns="http://www.w3.org/2000/svg" xml:space="preserve" width="0.166657in" height="0.166665in" version="1.1" style="shape-rendering:geometricPrecision; text-rendering:geometricPrecision; image-rendering:optimizeQuality; fill-rule:evenodd; clip-rule:evenodd"
viewBox="0 0 0.76 0.76"
 xmlns:xlink="http://www.w3.org/1999/xlink"
 xmlns:xodm="http://www.corel.com/coreldraw/odm/2003">
 <defs>
  <style type="text/css">
   <![CDATA[
    .fil0 {fill:#085F1B;fill-rule:nonzero}
   ]]>
  </style>
 </defs>
 <g id="Camada_x0020_1">
  <metadata id="CorelCorpID_0Corel-Layer"/>
  <path class="fil0" d="M0.38 0c-0.21,0 -0.38,0.17 -0.38,0.38 -0,0.07 0.02,0.13 0.05,0.19l-0.05 0.19 0.2 -0.05c0.06,0.03 0.12,0.05 0.18,0.05l0 0c0.21,0 0.38,-0.17 0.38,-0.38 0,-0.1 -0.04,-0.2 -0.11,-0.27 -0.07,-0.07 -0.17,-0.11 -0.27,-0.11zm-0 0.08c0.08,0 0.16,0.03 0.21,0.09 0.06,0.06 0.09,0.13 0.09,0.21 -0,0.17 -0.14,0.3 -0.3,0.3 -0.05,-0 -0.1,-0.01 -0.14,-0.04l-0.03 -0.01 -0.03 0.01 -0.07 0.02 0.02 -0.07 0.01 -0.03 -0.02 -0.03c-0.03,-0.05 -0.04,-0.1 -0.04,-0.15 0,-0.17 0.14,-0.3 0.3,-0.3zm-0.13 0.13c-0.01,0 -0.02,0 -0.03,0.01 -0.01,0.01 -0.03,0.03 -0.03,0.08 0,0.05 0.03,0.09 0.04,0.1 0,0.01 0.07,0.1 0.16,0.14 0.08,0.03 0.1,0.03 0.11,0.02 0.02,-0 0.06,-0.02 0.06,-0.04 0.01,-0.02 0.01,-0.04 0.01,-0.04 -0,-0 -0.01,-0.01 -0.02,-0.01 -0.01,-0 -0.06,-0.03 -0.06,-0.03 -0.01,-0 -0.02,-0 -0.02,0 -0.01,0.01 -0.02,0.03 -0.03,0.04 -0.01,0.01 -0.01,0.01 -0.02,0 -0.01,-0 -0.04,-0.01 -0.08,-0.05 -0.03,-0.03 -0.05,-0.06 -0.05,-0.07 -0.01,-0.01 -0,-0.01 0,-0.02 0,-0 0.01,-0.01 0.01,-0.02 0,-0.01 0.01,-0.01 0.01,-0.02 0,-0.01 0,-0.01 -0,-0.02 -0,-0 -0.02,-0.05 -0.03,-0.07 -0.01,-0.02 -0.01,-0.02 -0.02,-0.02 -0.01,-0 -0.01,-0 -0.02,-0z"/>
 </g>
</svg>
