<?xml version="1.0" encoding="UTF-8"?>
<!DOCTYPE svg PUBLIC "-//W3C//DTD SVG 1.1//EN" "http://www.w3.org/Graphics/SVG/1.1/DTD/svg11.dtd">
<!-- Creator: CorelDRAW -->
<svg xmlns="http://www.w3.org/2000/svg" xml:space="preserve" width="0.147567in" height="0.147567in" version="1.1" style="shape-rendering:geometricPrecision; text-rendering:geometricPrecision; image-rendering:optimizeQuality; fill-rule:evenodd; clip-rule:evenodd"
viewBox="0 0 0.65 0.65"
 xmlns:xlink="http://www.w3.org/1999/xlink"
 xmlns:xodm="http://www.corel.com/coreldraw/odm/2003">
 <defs>
  <style type="text/css">
   <![CDATA[
    .fil0 {fill:white;fill-rule:nonzero}
   ]]>
  </style>
 </defs>
 <g id="Camada_x0020_1">
  <metadata id="CorelCorpID_0Corel-Layer"/>
  <path class="fil0" d="M0.57 0l-0.5 0c-0.04,0 -0.08,0.03 -0.08,0.08l0 0.5c0,0.04 0.03,0.08 0.08,0.08l0.5 0c0.04,0 0.08,-0.03 0.08,-0.08l0 -0.5c0,-0.04 -0.03,-0.08 -0.08,-0.08zm0.03 0.57c0,0.01 -0.01,0.03 -0.03,0.03l-0.14 0 0 -0.21 0.08 0 0.01 -0.08 -0.09 0 0 -0.05c0,-0.02 0.02,-0.04 0.04,-0.04l0.05 0 0 -0.08 -0.05 0c-0.06,0 -0.12,0.05 -0.12,0.12l0 0.05 -0.08 0 0 0.08 0.08 0 0 0.21 -0.27 0c-0.01,0 -0.03,-0.01 -0.03,-0.03l0 -0.5c0,-0.01 0.01,-0.03 0.03,-0.03l0.5 0c0.01,0 0.03,0.01 0.03,0.03l0 0.5z"/>
 </g>
</svg>
