<?xml version="1.0" encoding="UTF-8"?>
<!DOCTYPE svg PUBLIC "-//W3C//DTD SVG 1.1//EN" "http://www.w3.org/Graphics/SVG/1.1/DTD/svg11.dtd">
<!-- Creator: CorelDRAW -->
<svg xmlns="http://www.w3.org/2000/svg" xml:space="preserve" width="8.4667mm" height="6.5853mm" version="1.1" style="shape-rendering:geometricPrecision; text-rendering:geometricPrecision; image-rendering:optimizeQuality; fill-rule:evenodd; clip-rule:evenodd"
viewBox="0 0 26.83 20.86"
 xmlns:xlink="http://www.w3.org/1999/xlink"
 xmlns:xodm="http://www.corel.com/coreldraw/odm/2003">
 <defs>
  <style type="text/css">
   <![CDATA[
    .fil0 {fill:#E5D2A7;fill-rule:nonzero}
   ]]>
  </style>
 </defs>
 <g id="Camada_x0020_1">
  <metadata id="CorelCorpID_0Corel-Layer"/>
  <path class="fil0" d="M1.49 2.98c-0.82,0 -1.49,-0.67 -1.49,-1.49 0,-0.82 0.67,-1.49 1.49,-1.49l23.84 0c0.82,0 1.49,0.67 1.49,1.49 0,0.82 -0.67,1.49 -1.49,1.49l-23.84 0zm0 8.94c-0.82,0 -1.49,-0.67 -1.49,-1.49 0,-0.82 0.67,-1.49 1.49,-1.49l23.84 0c0.82,0 1.49,0.67 1.49,1.49 0,0.82 -0.67,1.49 -1.49,1.49l-23.84 0zm0 8.94c-0.82,0 -1.49,-0.67 -1.49,-1.49 0,-0.82 0.67,-1.49 1.49,-1.49l23.84 0c0.82,0 1.49,0.67 1.49,1.49 0,0.82 -0.67,1.49 -1.49,1.49l-23.84 0z"/>
 </g>
</svg>
