<?xml version="1.0" encoding="UTF-8"?>
<!DOCTYPE svg PUBLIC "-//W3C//DTD SVG 1.1//EN" "http://www.w3.org/Graphics/SVG/1.1/DTD/svg11.dtd">
<!-- Creator: CorelDRAW -->
<svg xmlns="http://www.w3.org/2000/svg" xml:space="preserve" width="16.9333mm" height="4.4065mm" version="1.1" style="shape-rendering:geometricPrecision; text-rendering:geometricPrecision; image-rendering:optimizeQuality; fill-rule:evenodd; clip-rule:evenodd"
viewBox="0 0 38.9 10.12"
 xmlns:xlink="http://www.w3.org/1999/xlink"
 xmlns:xodm="http://www.corel.com/coreldraw/odm/2003">
 <defs>
  <style type="text/css">
   <![CDATA[
    .fil0 {fill:#FEFEFE;fill-rule:nonzero}
   ]]>
  </style>
 </defs>
 <g id="Camada_x0020_1">
  <metadata id="CorelCorpID_0Corel-Layer"/>
  <g id="_1837010961200">
   <path class="fil0" d="M5.06 0l28.78 0c1.39,0 2.66,0.57 3.57,1.49 0.92,0.92 1.49,2.18 1.49,3.58 0,1.39 -0.57,2.66 -1.49,3.57 -0.92,0.92 -2.18,1.49 -3.57,1.49l-28.78 0c-1.39,0 -2.66,-0.57 -3.58,-1.49 -0.92,-0.92 -1.49,-2.18 -1.49,-3.57 0,-1.39 0.57,-2.66 1.49,-3.58 0.92,-0.92 2.18,-1.49 3.58,-1.49zm28.78 0.95l-28.78 0c-1.13,0 -2.16,0.46 -2.9,1.21 -0.74,0.75 -1.21,1.77 -1.21,2.9 0,1.13 0.46,2.16 1.21,2.9 0.75,0.75 1.77,1.21 2.9,1.21l28.78 0c1.13,0 2.16,-0.46 2.9,-1.21 0.74,-0.74 1.21,-1.77 1.21,-2.9 0,-1.13 -0.46,-2.16 -1.21,-2.9 -0.74,-0.75 -1.77,-1.21 -2.9,-1.21z"/>
   <path class="fil0" d="M3.69 8.4l1.09 0 0 -1.98 0.02 0c0.07,0.16 0.17,0.29 0.29,0.41 0.12,0.11 0.26,0.2 0.42,0.26 0.16,0.06 0.34,0.09 0.52,0.09 0.34,0 0.62,-0.08 0.86,-0.25 0.24,-0.17 0.43,-0.4 0.56,-0.71 0.13,-0.31 0.2,-0.68 0.2,-1.11l0 -0c0,-0.43 -0.07,-0.8 -0.2,-1.11 -0.13,-0.31 -0.32,-0.55 -0.56,-0.71 -0.24,-0.16 -0.53,-0.25 -0.87,-0.25 -0.19,0 -0.36,0.03 -0.52,0.09 -0.16,0.06 -0.3,0.15 -0.41,0.27 -0.12,0.12 -0.21,0.26 -0.28,0.42l-0.03 0 0 -0.7 -1.09 0 0 5.29zm1.97 -2.12c-0.18,0 -0.33,-0.05 -0.46,-0.14 -0.13,-0.1 -0.24,-0.23 -0.31,-0.41 -0.08,-0.18 -0.11,-0.38 -0.11,-0.62l0 -0c0,-0.24 0.04,-0.45 0.11,-0.63 0.07,-0.18 0.18,-0.31 0.31,-0.41 0.13,-0.1 0.29,-0.14 0.46,-0.14 0.18,0 0.33,0.05 0.47,0.14 0.13,0.09 0.23,0.23 0.31,0.4 0.07,0.18 0.11,0.38 0.11,0.63l0 0c0,0.24 -0.04,0.45 -0.11,0.62 -0.07,0.18 -0.17,0.31 -0.3,0.41 -0.13,0.1 -0.29,0.14 -0.47,0.14zm4.36 0.9c0.29,0 0.53,-0.04 0.75,-0.11 0.21,-0.07 0.39,-0.17 0.54,-0.3 0.15,-0.12 0.27,-0.26 0.35,-0.41 0.09,-0.15 0.14,-0.3 0.18,-0.44l0.01 -0.04 -1 0 -0.01 0.02c-0.03,0.07 -0.07,0.15 -0.14,0.22 -0.07,0.07 -0.16,0.13 -0.27,0.18 -0.11,0.05 -0.24,0.07 -0.39,0.07 -0.19,0 -0.35,-0.04 -0.49,-0.12 -0.14,-0.08 -0.24,-0.2 -0.31,-0.36 -0.07,-0.16 -0.11,-0.35 -0.11,-0.56l0 -0.42c0,-0.23 0.04,-0.42 0.11,-0.58 0.07,-0.16 0.18,-0.28 0.3,-0.36 0.13,-0.08 0.28,-0.12 0.45,-0.12 0.17,0 0.32,0.04 0.44,0.12 0.13,0.08 0.23,0.2 0.3,0.36 0.07,0.16 0.11,0.35 0.11,0.59l0 0.42 0.52 -0.64 -2.77 0 0 0.68 3.28 0 0 -0.34c0,-0.4 -0.08,-0.75 -0.23,-1.05 -0.15,-0.3 -0.37,-0.53 -0.66,-0.7 -0.28,-0.16 -0.62,-0.25 -1.01,-0.25 -0.39,0 -0.73,0.09 -1.01,0.26 -0.29,0.17 -0.51,0.41 -0.67,0.72 -0.16,0.31 -0.24,0.68 -0.24,1.1l0 0c0,0.42 0.08,0.79 0.24,1.1 0.16,0.31 0.38,0.55 0.68,0.72 0.29,0.17 0.64,0.25 1.05,0.25zm3.89 0c0.29,0 0.54,-0.07 0.75,-0.2 0.21,-0.14 0.37,-0.32 0.48,-0.56l0.02 0 0 0.68 1.09 0 0 -5.37 -1.09 0 0 2.07 -0.02 0c-0.11,-0.24 -0.27,-0.43 -0.48,-0.57 -0.21,-0.14 -0.46,-0.21 -0.74,-0.21 -0.33,0 -0.62,0.08 -0.86,0.25 -0.24,0.17 -0.43,0.4 -0.56,0.71 -0.13,0.31 -0.2,0.68 -0.2,1.11l0 0c0,0.43 0.06,0.8 0.2,1.11 0.13,0.31 0.32,0.55 0.56,0.71 0.24,0.17 0.53,0.25 0.87,0.25zm0.37 -0.9c-0.18,0 -0.34,-0.05 -0.47,-0.14 -0.13,-0.1 -0.24,-0.23 -0.3,-0.41 -0.07,-0.18 -0.11,-0.38 -0.11,-0.62l0 -0c0,-0.24 0.04,-0.45 0.11,-0.63 0.07,-0.18 0.17,-0.31 0.3,-0.4 0.13,-0.09 0.29,-0.14 0.47,-0.14 0.18,0 0.33,0.05 0.46,0.14 0.13,0.1 0.24,0.23 0.31,0.41 0.08,0.18 0.11,0.38 0.11,0.62l0 0c0,0.24 -0.04,0.45 -0.11,0.62 -0.07,0.18 -0.18,0.31 -0.31,0.41 -0.13,0.1 -0.29,0.14 -0.46,0.14zm4.05 0.9c0.3,0 0.55,-0.06 0.76,-0.2 0.2,-0.13 0.36,-0.31 0.46,-0.54l0.02 0 0 0.66 1.09 0 0 -3.99 -1.09 0 0 2.29c0,0.17 -0.03,0.32 -0.1,0.46 -0.07,0.13 -0.16,0.24 -0.28,0.31 -0.12,0.07 -0.26,0.11 -0.42,0.11 -0.24,0 -0.43,-0.07 -0.55,-0.21 -0.12,-0.14 -0.18,-0.35 -0.18,-0.61l0 -2.35 -1.09 0 0 2.57c0,0.31 0.05,0.58 0.16,0.8 0.11,0.22 0.26,0.39 0.47,0.51 0.2,0.12 0.45,0.18 0.75,0.18zm3.06 -0.08l1.09 0 0 -5.37 -1.09 0 0 5.37zm3.18 0.08c0.3,0 0.55,-0.06 0.76,-0.2 0.2,-0.13 0.36,-0.31 0.46,-0.54l0.02 0 0 0.66 1.09 0 0 -3.99 -1.09 0 0 2.29c0,0.17 -0.03,0.32 -0.1,0.46 -0.07,0.13 -0.16,0.24 -0.28,0.31 -0.12,0.07 -0.26,0.11 -0.42,0.11 -0.24,0 -0.43,-0.07 -0.55,-0.21 -0.12,-0.14 -0.18,-0.35 -0.18,-0.61l0 -2.35 -1.09 0 0 2.57c0,0.31 0.05,0.58 0.16,0.8 0.11,0.22 0.26,0.39 0.47,0.51 0.2,0.12 0.45,0.18 0.75,0.18zm4.85 0c0.35,0 0.66,-0.07 0.93,-0.2 0.26,-0.14 0.47,-0.32 0.62,-0.55 0.15,-0.23 0.24,-0.49 0.25,-0.78l0 -0.02 -1.01 0 -0 0.03c-0.04,0.2 -0.12,0.36 -0.26,0.49 -0.13,0.12 -0.31,0.18 -0.53,0.18 -0.18,0 -0.33,-0.05 -0.46,-0.14 -0.13,-0.1 -0.23,-0.23 -0.3,-0.42 -0.07,-0.18 -0.11,-0.4 -0.11,-0.66l0 -0c0,-0.25 0.04,-0.47 0.11,-0.65 0.07,-0.18 0.17,-0.32 0.3,-0.42 0.13,-0.1 0.28,-0.15 0.46,-0.15 0.23,0 0.4,0.06 0.54,0.19 0.13,0.13 0.21,0.29 0.24,0.48l0.01 0.03 1.01 0 0 -0.03c-0.02,-0.29 -0.1,-0.55 -0.25,-0.78 -0.15,-0.23 -0.36,-0.41 -0.62,-0.55 -0.27,-0.14 -0.58,-0.2 -0.94,-0.2 -0.4,0 -0.74,0.08 -1.04,0.25 -0.29,0.17 -0.52,0.41 -0.68,0.71 -0.16,0.31 -0.24,0.68 -0.24,1.1l0 0c0,0.43 0.08,0.79 0.24,1.11 0.16,0.31 0.38,0.55 0.68,0.72 0.29,0.17 0.65,0.25 1.05,0.25zm3.52 -0.02c0.18,0 0.34,-0.03 0.49,-0.08 0.15,-0.05 0.28,-0.13 0.4,-0.23 0.12,-0.1 0.21,-0.21 0.29,-0.35l0.02 0 0 0.6 1.09 0 0 -2.73c0,-0.27 -0.07,-0.5 -0.21,-0.7 -0.14,-0.2 -0.34,-0.36 -0.59,-0.47 -0.25,-0.11 -0.55,-0.16 -0.9,-0.16 -0.35,0 -0.65,0.05 -0.91,0.16 -0.25,0.11 -0.45,0.26 -0.59,0.45 -0.14,0.19 -0.22,0.41 -0.24,0.66l-0 0.04 0.99 0 0.01 -0.03c0.03,-0.13 0.1,-0.24 0.22,-0.32 0.12,-0.09 0.28,-0.13 0.48,-0.13 0.21,0 0.38,0.05 0.49,0.16 0.11,0.1 0.17,0.24 0.17,0.42l0 1.21c0,0.14 -0.04,0.26 -0.11,0.37 -0.07,0.11 -0.17,0.2 -0.3,0.26 -0.13,0.06 -0.27,0.1 -0.43,0.1 -0.19,0 -0.34,-0.04 -0.45,-0.12 -0.11,-0.08 -0.17,-0.2 -0.17,-0.34l0 -0.01c0,-0.14 0.05,-0.26 0.16,-0.34 0.11,-0.09 0.27,-0.13 0.48,-0.15l1.39 -0.09 0 -0.68 -1.55 0.1c-0.49,0.03 -0.88,0.15 -1.15,0.36 -0.27,0.21 -0.41,0.49 -0.41,0.85l0 0.01c0,0.23 0.06,0.44 0.17,0.62 0.11,0.18 0.27,0.32 0.47,0.43 0.2,0.1 0.43,0.15 0.7,0.15z"/>
  </g>
 </g>
</svg>
