<?xml version="1.0" encoding="UTF-8"?>
<!DOCTYPE svg PUBLIC "-//W3C//DTD SVG 1.1//EN" "http://www.w3.org/Graphics/SVG/1.1/DTD/svg11.dtd">
<!-- Creator: CorelDRAW -->
<svg xmlns="http://www.w3.org/2000/svg" xml:space="preserve" width="10.4217mm" height="4.5549mm" version="1.1" style="shape-rendering:geometricPrecision; text-rendering:geometricPrecision; image-rendering:optimizeQuality; fill-rule:evenodd; clip-rule:evenodd"
viewBox="0 0 12.6 5.51"
 xmlns:xlink="http://www.w3.org/1999/xlink"
 xmlns:xodm="http://www.corel.com/coreldraw/odm/2003">
 <defs>
  <style type="text/css">
   <![CDATA[
    .fil0 {fill:#E5D2A7}
   ]]>
  </style>
 </defs>
 <g id="Camada_x0020_1">
  <metadata id="CorelCorpID_0Corel-Layer"/>
  <g id="_1610792524432">
   <g>
    <path class="fil0" d="M5.76 2.93l-0.57 1.93 -0.16 0 0 0.59 1.19 0 0 -0.59 -0.28 0 0.09 -0.25 0.42 0 0.12 0.25 -0.24 0 0 0.59 1.26 0 0 -0.59 -0.16 0 -0.5 -1.93 -1.16 0zm0.48 1.36l-0.14 0 0.14 -0.65 0.14 0.65 -0.14 0z"/>
    <path class="fil0" d="M10.78 2.93l-0.57 1.93 -0.16 0 0 0.59 1.19 0 0 -0.59 -0.28 0 0.09 -0.25 0.42 0 0.12 0.25 -0.24 0 0 0.59 1.26 0 0 -0.59 -0.16 0 -0.5 -1.93 -1.16 0zm0.48 1.36l-0.14 0 0.14 -0.65 0.14 0.65 -0.14 0z"/>
    <path class="fil0" d="M-0 2.93c0,0.17 0,0.33 0,0.5 0.06,0 0.12,0 0.18,0 0,0.51 0,1.01 0,1.52 -0.06,0 -0.12,0 -0.18,0 0,0.17 0,0.34 0,0.51 0.62,0 1.11,0 1.73,0 0.52,0 0.67,-0.34 0.69,-0.66 0.02,-0.3 -0.17,-0.6 -0.64,-0.6 -0.1,0 -0.1,-0.06 0,-0.06 0.2,-0.06 0.54,-0.22 0.54,-0.57 0,-0.43 -0.39,-0.63 -0.75,-0.63 -0.58,0 -1,0 -1.58,0zm1.06 1.39l0.19 0c0.11,0 0.19,0.09 0.19,0.19l0 0.19c0,0.11 -0.09,0.19 -0.19,0.19l-0.19 0 0 -0.58zm0 -0.9l0.19 0c0.11,0 0.19,0.09 0.19,0.19l0 0.19c0,0.11 -0.09,0.19 -0.19,0.19l-0.19 0 0 -0.58z"/>
    <path class="fil0" d="M2.44 2.93c0,0.18 0,0.35 0,0.53 0.06,0 0.12,0 0.18,0 0,0.48 0,0.96 0,1.43 -0.06,0 -0.12,0 -0.18,0 0,0.19 0,0.38 0,0.57 0.43,0 0.86,0 1.29,0 0,-0.19 0,-0.38 0,-0.57 -0.09,0 -0.18,0 -0.27,0 0,-0.17 0,-0.35 0,-0.52 0.22,-0.03 0.45,0.01 0.45,0.22 0,0.29 0,0.59 0,0.88 0.33,0 0.65,0 0.98,0 0,-0.19 0,-0.38 0,-0.57 -0.07,0 -0.13,0 -0.2,0 0,-0.14 0,-0.22 0,-0.36 0,-0.11 -0.06,-0.26 -0.27,-0.26 -0.04,0 -0.04,-0.05 0,-0.05 0.57,-0.04 0.59,-1.29 -0.29,-1.29 -0.57,0 -1.13,0 -1.7,0zm1.03 0.5l0.19 0c0.11,0 0.19,0.09 0.19,0.19l0 0.19c0,0.11 -0.09,0.19 -0.19,0.19l-0.19 0 0 -0.58z"/>
    <path class="fil0" d="M9.05 4.62c-0.06,0 -0.12,0 -0.19,0 0,-0.16 0,-0.32 0,-0.48 0.39,0 0.78,0 1.17,0 0,0.16 0,0.32 0,0.48 -0.07,0 -0.14,0 -0.22,0 0,0.23 0,0.46 0,0.69 -3.21,1.16 -2.93,-3.42 -0.09,-2.24 0.03,0 0.06,0 0.09,0 0,0.27 0,0.54 0,0.81 -0.26,0 -0.52,0 -0.77,0 0,-0.1 0,-0.2 0,-0.31 0,-0.23 -0.49,-0.23 -0.49,0 0,0.4 0,0.79 0,1.19 0,0.25 0.5,0.25 0.5,0 0,-0.05 0,-0.1 0,-0.15z"/>
   </g>
   <g>
    <path class="fil0" d="M1.7 0.05l-0.57 1.93 -0.16 0 0 0.59 1.19 0 0 -0.59 -0.28 0 0.09 -0.25 0.42 0 0.12 0.25 -0.24 0 0 0.59 1.26 0 0 -0.59 -0.16 0 -0.5 -1.93 -1.16 0zm0.48 1.36l-0.14 0 0.14 -0.65 0.14 0.65 -0.14 0z"/>
    <path class="fil0" d="M9.65 0.01l0.37 0c0.58,0 1.05,0.47 1.05,1.05l0 0.5c0,0.58 -0.47,1.05 -1.05,1.05l-0.37 0c-0.58,0 -1.05,-0.47 -1.05,-1.05l0 -0.5c0,-0.58 0.47,-1.05 1.05,-1.05zm0.18 0.55c0.15,0 0.27,0.12 0.27,0.27l0 0.96c0,0.15 -0.12,0.27 -0.27,0.27 -0.15,0 -0.27,-0.12 -0.27,-0.27l0 -0.96c0,-0.15 0.12,-0.27 0.27,-0.27z"/>
    <path class="fil0" d="M6.11 0.05c0,0.18 0,0.35 0,0.53 0.06,0 0.12,0 0.18,0 0,0.48 0,0.96 0,1.43 -0.06,0 -0.12,0 -0.18,0 0,0.19 0,0.38 0,0.57 0.43,0 0.86,0 1.29,0 0,-0.19 0,-0.38 0,-0.57 -0.09,0 -0.18,0 -0.27,0 0,-0.17 0,-0.35 0,-0.52 0.22,-0.03 0.45,0.01 0.45,0.22 0,0.29 0,0.59 0,0.88 0.33,0 0.65,0 0.98,0 0,-0.19 0,-0.38 0,-0.57 -0.07,0 -0.13,0 -0.2,0 0,-0.14 0,-0.22 0,-0.36 0,-0.11 -0.06,-0.26 -0.27,-0.26 -0.04,0 -0.04,-0.05 0,-0.05 0.57,-0.04 0.59,-1.29 -0.29,-1.29 -0.57,0 -1.13,0 -1.7,0zm1.03 0.5l0.19 0c0.11,0 0.19,0.09 0.19,0.19l0 0.19c0,0.11 -0.09,0.19 -0.19,0.19l-0.19 0 0 -0.58z"/>
    <path class="fil0" d="M5.1 1.74c-0.06,0 -0.12,0 -0.19,0 0,-0.16 0,-0.32 0,-0.48 0.39,0 0.78,0 1.17,0 0,0.16 0,0.32 0,0.48 -0.07,0 -0.14,0 -0.22,0 0,0.23 0,0.46 0,0.69 -3.21,1.16 -2.93,-3.42 -0.09,-2.24 0.03,0 0.06,0 0.09,0 0,0.27 0,0.54 0,0.81 -0.26,0 -0.52,0 -0.77,0 0,-0.1 0,-0.2 0,-0.31 0,-0.23 -0.49,-0.23 -0.49,0 0,0.4 0,0.79 0,1.19 0,0.25 0.5,0.25 0.5,0 0,-0.05 0,-0.1 0,-0.15z"/>
   </g>
  </g>
 </g>
</svg>
